<mxfile host="Electron" modified="2024-03-10T09:18:26.672Z" agent="Mozilla/5.0 (X11; Linux x86_64) AppleWebKit/537.36 (KHTML, like Gecko) draw.io/23.1.5 Chrome/120.0.6099.109 Electron/28.1.0 Safari/537.36" etag="N5viqv7Bm_Qoj1mMPBzl" version="23.1.5" type="device">
  <diagram name="Page-1" id="OdBLbiPZlDxiJY5oYws5">
    <mxGraphModel dx="576" dy="321" grid="1" gridSize="10" guides="1" tooltips="1" connect="1" arrows="1" fold="1" page="1" pageScale="1" pageWidth="1654" pageHeight="1169" math="0" shadow="0">
      <root>
        <mxCell id="0" />
        <mxCell id="1" parent="0" />
        <mxCell id="Z1NoEOiam73hx4PCpi6l-49" value="" style="group;aspect=fixed;" vertex="1" connectable="0" parent="1">
          <mxGeometry x="845.1700000000001" y="327.53" width="103.03122292025705" height="100" as="geometry" />
        </mxCell>
        <mxCell id="Z1NoEOiam73hx4PCpi6l-39" value="" style="verticalLabelPosition=bottom;verticalAlign=top;html=1;shape=mxgraph.basic.partConcEllipse;fillColor=#10739E;strokeColor=none;startAngle=0.6272103432020535;endAngle=0.35205711672255885;arcWidth=0.13;" vertex="1" parent="Z1NoEOiam73hx4PCpi6l-49">
          <mxGeometry width="100" height="100" as="geometry" />
        </mxCell>
        <mxCell id="Z1NoEOiam73hx4PCpi6l-43" value="" style="verticalLabelPosition=bottom;verticalAlign=top;html=1;shape=mxgraph.basic.acute_triangle;dx=0.5;rotation=-150;aspect=fixed;fillColor=#10739E;strokeColor=none;" vertex="1" parent="Z1NoEOiam73hx4PCpi6l-49">
          <mxGeometry x="77" y="73" width="20" height="14" as="geometry" />
        </mxCell>
        <mxCell id="Z1NoEOiam73hx4PCpi6l-45" value="软件模拟" style="text;html=1;align=center;verticalAlign=middle;whiteSpace=wrap;rounded=0;" vertex="1" parent="Z1NoEOiam73hx4PCpi6l-49">
          <mxGeometry x="20" y="71" width="60" height="20" as="geometry" />
        </mxCell>
        <mxCell id="Z1NoEOiam73hx4PCpi6l-56" value="" style="group;rotation=90;" vertex="1" connectable="0" parent="1">
          <mxGeometry x="823.1700000000001" y="306.9599999999999" width="174.23999999999998" height="182.57000000000002" as="geometry" />
        </mxCell>
        <mxCell id="Z1NoEOiam73hx4PCpi6l-51" value="" style="verticalLabelPosition=bottom;verticalAlign=top;html=1;shape=mxgraph.basic.partConcEllipse;fillColor=#10739E;strokeColor=none;startAngle=0.5836786611065589;endAngle=0.3905072382125863;arcWidth=0.09;" vertex="1" parent="Z1NoEOiam73hx4PCpi6l-56">
          <mxGeometry width="146.64" height="143" as="geometry" />
        </mxCell>
        <mxCell id="Z1NoEOiam73hx4PCpi6l-53" value="FPGA" style="text;html=1;align=center;verticalAlign=middle;whiteSpace=wrap;rounded=0;" vertex="1" parent="Z1NoEOiam73hx4PCpi6l-56">
          <mxGeometry x="39" y="109.37" width="71" height="36" as="geometry" />
        </mxCell>
        <mxCell id="Z1NoEOiam73hx4PCpi6l-61" value="" style="group;aspect=fixed;" vertex="1" connectable="0" parent="Z1NoEOiam73hx4PCpi6l-56">
          <mxGeometry x="-25.24000000000001" y="-16.909999999999968" width="199.48" height="199.48" as="geometry" />
        </mxCell>
        <mxCell id="Z1NoEOiam73hx4PCpi6l-65" value="" style="group" vertex="1" connectable="0" parent="Z1NoEOiam73hx4PCpi6l-61">
          <mxGeometry x="6" y="-5" width="189.48" height="191.85054776381804" as="geometry" />
        </mxCell>
        <mxCell id="Z1NoEOiam73hx4PCpi6l-62" value="" style="verticalLabelPosition=bottom;verticalAlign=top;html=1;shape=mxgraph.basic.partConcEllipse;fillColor=#10739E;strokeColor=none;startAngle=0.5615143889950647;endAngle=0.4240767791884231;arcWidth=0.06;" vertex="1" parent="Z1NoEOiam73hx4PCpi6l-65">
          <mxGeometry width="189.48" height="185" as="geometry" />
        </mxCell>
        <mxCell id="Z1NoEOiam73hx4PCpi6l-63" value="" style="verticalLabelPosition=bottom;verticalAlign=top;html=1;shape=mxgraph.basic.acute_triangle;dx=0.5;rotation=-125;aspect=fixed;fillColor=#10739E;strokeColor=none;" vertex="1" parent="Z1NoEOiam73hx4PCpi6l-65">
          <mxGeometry x="117.31999999999998" y="166.57" width="26.32" height="18.43" as="geometry" />
        </mxCell>
        <mxCell id="Z1NoEOiam73hx4PCpi6l-64" value="ASIC" style="text;html=1;align=center;verticalAlign=middle;whiteSpace=wrap;rounded=0;" vertex="1" parent="Z1NoEOiam73hx4PCpi6l-65">
          <mxGeometry x="75.25999999999999" y="166.57" width="36.95" height="17.75" as="geometry" />
        </mxCell>
        <mxCell id="Z1NoEOiam73hx4PCpi6l-66" value="" style="group;aspect=fixed;direction=south;" vertex="1" connectable="0" parent="1">
          <mxGeometry x="782.0050000000003" y="268.995" width="237.37" height="234.44" as="geometry" />
        </mxCell>
        <mxCell id="Z1NoEOiam73hx4PCpi6l-67" value="" style="verticalLabelPosition=bottom;verticalAlign=top;html=1;shape=mxgraph.basic.partConcEllipse;fillColor=#10739E;strokeColor=none;startAngle=0.5615143889950647;endAngle=0.4240767791884231;arcWidth=0.05;" vertex="1" parent="Z1NoEOiam73hx4PCpi6l-66">
          <mxGeometry width="234.43999999999994" height="228.89405587760243" as="geometry" />
        </mxCell>
        <mxCell id="Z1NoEOiam73hx4PCpi6l-68" value="" style="verticalLabelPosition=bottom;verticalAlign=top;html=1;shape=mxgraph.basic.acute_triangle;dx=0.5;rotation=-125;aspect=fixed;fillColor=#10739E;strokeColor=none;" vertex="1" parent="Z1NoEOiam73hx4PCpi6l-66">
          <mxGeometry x="145.15780451762714" y="206.0912588515256" width="32.56473710894971" height="22.80273954855407" as="geometry" />
        </mxCell>
        <mxCell id="Z1NoEOiam73hx4PCpi6l-69" value="投片" style="text;html=1;align=center;verticalAlign=middle;whiteSpace=wrap;rounded=0;" vertex="1" parent="Z1NoEOiam73hx4PCpi6l-66">
          <mxGeometry x="93.1177665188938" y="206.0912588515256" width="45.71753219337133" height="21.961456712580773" as="geometry" />
        </mxCell>
        <mxCell id="Z1NoEOiam73hx4PCpi6l-52" value="" style="verticalLabelPosition=bottom;verticalAlign=top;html=1;shape=mxgraph.basic.acute_triangle;dx=0.54;rotation=-120;aspect=fixed;fillColor=#10739E;strokeColor=none;" vertex="1" parent="Z1NoEOiam73hx4PCpi6l-66">
          <mxGeometry x="145.1599999999998" y="156.80000000000007" width="22.85" height="16" as="geometry" />
        </mxCell>
      </root>
    </mxGraphModel>
  </diagram>
</mxfile>
